<svg width="63" height="57" viewBox="0 0 63 57" fill="none" xmlns="http://www.w3.org/2000/svg">
<path d="M25.8623 51.8557L24.4257 51.214C21.979 50.1225 19.9739 48.2207 18.7429 45.828L18.2429 44.8541C18.1643 44.7007 18.0906 44.5423 18.017 44.3838C16.6033 44.3838 15.1871 44.3812 13.7734 44.3812C10.9865 44.3812 8.20224 44.3914 5.41542 44.3787C3.98139 44.371 3.81642 44.1742 3.8088 42.6123C3.80119 40.9559 3.91794 40.7897 5.33166 40.7846C9.24794 40.7769 13.1642 40.7769 17.0805 40.7795C16.9409 39.3838 17.0272 37.9037 17.3698 36.4364C16.1693 36.4364 14.9713 36.4339 13.7708 36.4339C10.9434 36.4339 8.11341 36.3904 5.28597 36.4518C3.83165 36.4824 3.81642 35.6287 3.78596 34.5499C3.75297 33.3996 4.05246 32.8219 5.32912 32.8321C9.81647 32.8628 14.3038 32.85 18.7912 32.8475C19.4891 31.6486 20.4028 30.5162 21.5653 29.5141C22.012 29.1307 22.4815 28.7779 22.9714 28.461C22.8191 28.4916 22.6465 28.5095 22.4409 28.5044C19.5704 28.4482 16.6972 28.4865 13.8267 28.4865C10.9561 28.4865 8.08295 28.4456 5.21237 28.507C3.92302 28.5351 3.77835 27.8449 3.79611 26.8147C3.81388 25.8101 3.78596 24.964 5.20222 24.9743C10.9459 25.0177 16.6871 25.0152 22.4308 24.9743C23.8166 24.964 23.8623 25.7641 23.8623 26.7969C23.8623 27.326 23.8267 27.7708 23.611 28.075C24.8572 27.3669 26.2151 26.871 27.6313 26.6077C27.6288 22.4998 27.6237 18.3894 27.6186 14.2815C26.8471 13.4814 26.1009 10.9328 25.7735 9.69563C25.6567 9.25595 25.7024 8.78816 25.908 8.38172C26.2963 7.6174 26.9689 6.36229 27.4537 5.86383C27.507 5.81014 27.5577 5.75646 27.611 5.70278C27.611 5.69767 27.611 5.69256 27.611 5.68744C27.611 5.13019 27.4105 4.50646 27.1161 4.02845C26.4968 3.01873 25.6922 2.12149 25.0831 1.10667C24.6059 0.314233 24.0196 -0.00274024 23.1186 0.0151534C21.1313 0.053497 19.1389 -0.0283026 17.1541 0.0483845L10.6236 0.0458283C8.76316 -0.0180777 6.89766 0.102066 5.03978 0.00748471C3.74281 -0.0589775 2.85702 0.306564 2.28087 1.531C1.923 2.2902 1.31894 2.92415 0.902689 3.66035C0.544819 4.29174 0.0422763 4.98448 0.0397382 5.6491C-0.0084855 22.0525 -0.00340932 38.4533 0.00674305 54.8567C0.00674305 56.4441 0.572737 56.9911 2.17935 56.9937C9.92307 57.0039 17.6642 57.0014 25.408 56.9886C27.0933 56.986 27.6288 56.4646 27.6288 54.7723C27.6288 53.9671 27.6288 53.1644 27.6288 52.3592C27.0222 52.2365 26.4334 52.0704 25.8623 51.8557ZM3.81388 9.58826C3.82403 8.03407 4.25551 7.56372 5.75044 7.55861C11.121 7.53816 16.4916 7.53816 21.8623 7.5535C23.3572 7.55861 23.8267 8.04685 23.8369 9.56526C23.8597 12.2467 23.8572 14.9282 23.8369 17.6123C23.8242 19.1972 23.3673 19.6317 21.7683 19.6394C19.1033 19.6496 16.4409 19.6419 13.7759 19.6419C13.7759 19.6394 13.7759 19.6394 13.7759 19.6368C11.1109 19.6368 8.44844 19.6471 5.78344 19.6343C4.29104 19.6266 3.82403 19.1588 3.81388 17.6404C3.79611 14.9538 3.79865 12.2723 3.81388 9.58826ZM13.6921 54.5806C11.6261 54.5193 10.0398 52.7938 10.1363 50.7105C10.2276 48.7089 11.9155 47.1803 13.9586 47.2519C15.9942 47.3209 17.5576 48.9594 17.517 50.9789C17.4739 53.0417 15.7734 54.6445 13.6921 54.5806Z" fill="#001E42"/>
<path d="M21.8476 42.9726C20.4415 40.2375 20.807 35.5544 24.208 32.6199C27.5228 29.762 32.5533 29.7569 35.8477 32.6301C39.231 35.58 39.9848 40.5417 37.6117 44.3044C35.0838 48.3126 30.4061 49.2022 27.2893 48.0263C27.4035 47.8934 27.4974 47.7681 27.604 47.6582C28.972 46.2779 30.3426 44.9 31.7081 43.5197C32.5152 42.7042 32.5152 41.9859 31.7056 41.1654C30.7309 40.1787 29.7512 39.192 28.7665 38.2155C28.0558 37.51 27.3045 37.5125 26.5888 38.2257C25.1344 39.6776 23.6903 41.1373 22.241 42.5943C22.1268 42.7119 22.005 42.8218 21.8476 42.9726Z" fill="#001E42"/>
<path d="M48.66 10.8229C45.3325 14.1614 42.0863 17.4232 38.7564 20.7642C39.8376 21.1374 40.8224 21.4748 41.8071 21.8224C42.8122 22.1752 43.5 22.8577 43.8224 23.8853C44.0483 24.6087 43.9772 25.2989 43.4264 25.8536C42.8706 26.4134 42.1498 26.4901 41.4645 26.2268C39.3097 25.4037 37.1574 24.5678 35.0431 23.6476C34.0228 23.2028 33.4314 22.3618 33.4137 21.1501C33.3781 18.8086 33.2944 16.4697 33.1979 14.1282C33.17 13.4226 33.3807 12.8679 33.8705 12.3771C36.1472 10.097 38.4086 7.80147 40.6853 5.52131C41.4975 4.70842 42.5914 4.80045 43.5762 5.76926C44.7361 6.9119 45.8732 8.08266 47.0255 9.23296C47.5331 9.74677 48.0585 10.2401 48.66 10.8229Z" fill="#001E42"/>
<path d="M45.3859 22.5381C44.7895 21.3418 43.7691 20.4523 42.2717 19.8899C43.1702 19.0182 44.0001 18.2334 44.8072 17.4231C47.6803 14.5371 50.5357 11.6358 53.4139 8.75747C54.9697 7.20072 56.8276 6.70481 58.8962 7.49468C60.9393 8.27434 62.018 9.8592 62.1703 12.0397C62.2515 13.2028 61.9622 14.325 61.2134 15.2222C60.3886 16.214 59.4546 17.1113 58.4545 18.1721C57.919 17.579 57.4698 17.009 56.9495 16.5156C55.688 15.3193 53.8885 15.0126 52.5002 15.7616C51.655 16.2191 51.023 16.9144 50.5611 17.7682C50.457 17.9599 50.2819 18.1516 50.0941 18.2564C49.1753 18.76 48.4672 19.4604 47.9748 20.3883C47.8986 20.5315 47.8174 20.6874 47.6956 20.782C46.9468 21.3648 46.1879 21.9323 45.3859 22.5381Z" fill="#001E42"/>
<path d="M47.1093 25.2069C46.7006 23.5888 48.0484 22.2084 49.726 22.6225C49.5306 21.8377 49.622 21.1706 50.2057 20.5647C50.7971 19.9538 51.4621 19.8567 52.2667 20.033C52.2667 19.8925 52.2844 19.803 52.2641 19.7237C51.9926 18.7115 52.5865 18.0392 53.3251 17.5407C53.924 17.1368 54.8352 17.2212 55.4824 17.8321C56.7236 18.9978 57.9266 20.2043 59.0916 21.4466C59.7058 22.101 59.82 23.0877 59.4139 23.668C58.7946 24.555 58.221 24.9845 57.1906 24.7391C57.1246 24.7237 57.0535 24.7365 56.9824 24.7365C57.051 26.7304 56.5078 27.2825 54.4088 27.3771C54.4748 29.325 53.6119 30.189 51.8174 29.9282C51.8174 30.0356 51.7997 30.1404 51.82 30.235C52.0484 31.237 51.523 31.894 50.7717 32.3746C50.023 32.8551 49.2108 32.6788 48.6144 32.1266C47.3402 30.9456 46.1118 29.7084 44.9367 28.4277C44.3834 27.8245 44.1981 26.9988 44.6752 26.2549C45.1829 25.4599 45.8351 24.9052 46.8961 25.2043C46.9494 25.2197 47.0078 25.2069 47.1093 25.2069Z" fill="#001E42"/>
<path d="M45.1118 31.4645C43.4976 33.0851 41.9088 34.6802 40.2844 36.3086C39.1067 32.8116 36.7615 30.419 33.1879 29.1537C33.5711 28.7574 33.9087 28.4047 34.2513 28.057C34.7437 27.556 35.2539 27.0703 35.731 26.554C35.9798 26.283 36.198 26.2293 36.5458 26.375C37.8224 26.9067 39.0991 27.441 40.4037 27.9011C41.0179 28.1184 41.6905 28.1618 42.3326 28.2999C42.4874 28.3331 42.7184 28.4047 42.7615 28.5172C43.16 29.5882 43.9976 30.3014 44.759 31.0811C44.8834 31.2089 45.0052 31.3469 45.1118 31.4645Z" fill="#001E42"/>
<path d="M29.7665 9.81575C29.9568 9.45021 30.0736 9.01565 30.3502 8.73446C32.5863 6.44151 34.8528 4.17924 37.1041 1.90419C37.4721 1.53354 37.9163 1.41084 38.4188 1.45685C39.5331 1.56166 40.5585 2.58671 40.5585 3.71657C40.5585 4.12045 40.3935 4.6317 40.1219 4.91289C37.8833 7.22884 35.6016 9.50133 33.3325 11.7866C32.934 12.1879 32.4518 12.303 31.9086 12.2007C30.7741 11.9834 29.8908 10.9712 29.7665 9.81575Z" fill="#001E42"/>
</svg>
