<svg width="64" height="64" viewBox="0 0 64 64" fill="none" xmlns="http://www.w3.org/2000/svg">
<path d="M55.3681 25.5395C56.544 25.5395 57.6624 25.5381 58.7809 25.5395C59.7672 25.541 60.1161 25.8844 60.1233 26.87C60.129 27.6128 60.1391 28.3556 60.119 29.097C60.1003 29.7967 59.7572 30.199 59.0637 30.2033C55.9769 30.2263 52.8886 30.2335 49.8018 30.186C49.4802 30.1817 49.1672 29.7809 48.8456 29.5711C48.6345 29.4332 48.4163 29.1947 48.1995 29.1932C45.0897 29.1659 41.9799 29.1645 38.8701 29.1832C38.6332 29.1846 38.28 29.3369 38.1838 29.5237C37.8952 30.0855 37.4487 30.2277 36.8844 30.2248C35.9038 30.2191 34.9203 30.2536 33.9412 30.2148C33.1429 30.1832 33.3051 30.7248 33.2807 31.1817C33.2534 31.6645 33.3066 32.0122 33.9541 31.9878C35.0768 31.9446 36.2039 31.9921 37.3281 31.9691C37.8378 31.959 38.1708 32.1372 38.4393 32.5826C38.7839 33.153 39.239 33.6573 39.5894 34.2248C39.7545 34.4935 39.8679 34.844 39.8693 35.1573C39.8851 44.3526 39.8851 53.5479 39.8808 62.7432C39.8808 63.6944 39.5779 63.9875 38.6245 63.9889C34.2441 63.9961 29.8651 63.9961 25.4847 63.9918C24.5759 63.9903 24.2557 63.6843 24.2557 62.7906C24.2499 53.5709 24.2471 44.3526 24.2743 35.1328C24.2758 34.7578 24.5601 34.3685 24.7625 34.015C24.998 33.6012 25.3411 33.2449 25.5421 32.8182C25.868 32.13 26.3691 31.9245 27.1027 31.9619C28.1537 32.0151 29.209 31.9475 30.2614 31.9834C31.0137 32.0093 30.8802 31.5036 30.8945 31.0653C30.9089 30.6171 30.9376 30.1846 30.2628 30.2177C29.5464 30.2521 28.8271 30.2248 28.1092 30.222C27.5694 30.2205 27.1458 30.0668 26.8974 29.5108C26.8213 29.3398 26.4954 29.1832 26.2829 29.1817C22.8601 29.1616 19.4373 29.1602 16.016 29.1846C15.792 29.1861 15.5695 29.4274 15.3469 29.5596C14.9823 29.778 14.6219 30.1832 14.2543 30.1889C11.2393 30.2392 8.22424 30.2191 5.20775 30.2133C4.51286 30.2119 4.12808 29.834 4.10654 29.153C4.07926 28.2924 4.07496 27.4274 4.11516 26.5683C4.14818 25.8628 4.51429 25.5496 5.2336 25.541C6.23861 25.528 7.24507 25.518 8.24865 25.5438C8.74541 25.5568 8.96077 25.3729 8.92344 24.8801C8.91196 24.7378 8.91052 24.5913 8.92631 24.449C8.99379 23.8643 8.76264 23.6502 8.15676 23.6602C6.14673 23.6904 4.13669 23.6717 2.12523 23.6703C1.86249 23.6703 1.59831 23.6703 1.33557 23.6703C0.159701 23.6674 0.00464175 23.5166 0.00320601 22.3557C0.00177028 21.518 -0.00397267 20.6789 0.00464175 19.8413C0.0132562 19.008 0.237231 18.7752 1.0757 18.7724C3.56527 18.7637 6.0534 18.768 8.54297 18.768C13.5207 18.768 18.4998 18.7666 23.4775 18.7738C24.5715 18.7752 24.7079 18.9275 24.7094 20.0338C24.7108 20.8959 24.7166 21.758 24.7036 22.62C24.6907 23.4677 24.4868 23.6674 23.6225 23.6689C19.8408 23.6732 16.0591 23.666 12.2788 23.6789C11.9658 23.6804 11.413 23.7407 11.3857 23.8657C11.2809 24.3398 11.3197 24.8542 11.3742 25.347C11.3829 25.4289 11.7303 25.5237 11.9227 25.528C12.7124 25.5496 13.5063 25.4907 14.2888 25.5611C14.6248 25.5913 15.0813 25.7838 15.2306 26.0467C15.479 26.4835 15.7676 26.5798 16.2098 26.5783C19.512 26.5697 22.8156 26.5697 26.1178 26.5798C26.5328 26.5812 26.7998 26.4993 27.0252 26.074C27.1674 25.8068 27.6268 25.564 27.947 25.5596C31.0094 25.5223 34.0733 25.5223 37.1371 25.5625C37.4544 25.5668 37.8995 25.8211 38.0531 26.0913C38.2915 26.5079 38.5729 26.5798 38.9806 26.5783C42.043 26.5668 45.1069 26.5754 48.1693 26.5438C48.4062 26.541 48.6374 26.2694 48.8757 26.1315C49.2246 25.9303 49.5634 25.6085 49.9338 25.5668C50.7135 25.4792 51.5117 25.5194 52.2999 25.5453C52.7752 25.5611 52.9575 25.3671 52.9259 24.9131C52.9159 24.7709 52.9101 24.6243 52.9274 24.4821C53.0063 23.8628 52.7637 23.6545 52.1233 23.6588C48.2942 23.6861 44.4651 23.6732 40.636 23.6717C39.43 23.6717 39.3065 23.5496 39.3008 22.3715C39.2979 21.5812 39.2965 20.791 39.3022 20.0008C39.3094 18.9247 39.4659 18.7724 40.5685 18.7709C47.2935 18.7695 54.0185 18.7695 60.7449 18.7695C61.5102 18.7695 62.2769 18.7752 63.0421 18.7709C63.6925 18.768 64.0098 19.0712 63.9998 19.7364C63.9854 20.7177 64.0041 21.7005 63.994 22.6818C63.9868 23.4217 63.7456 23.6646 62.9948 23.6674C60.7694 23.676 58.5425 23.6703 56.3171 23.6717C55.3021 23.6717 55.2992 23.6732 55.3121 24.6904C55.3136 24.9505 55.3451 25.2076 55.3681 25.5395ZM32.0446 42.9963C32.0446 42.9977 32.0446 42.9977 32.0446 42.9991C33.5521 42.9991 35.0582 43.0035 36.5657 42.9977C37.4702 42.9948 37.7301 42.7491 37.7358 41.8584C37.7473 40.3512 37.7473 38.8426 37.7373 37.3354C37.7315 36.482 37.4645 36.2075 36.6203 36.2047C33.5822 36.196 30.5442 36.1975 27.5062 36.2075C26.6591 36.2104 26.415 36.4748 26.4107 37.3483C26.4021 38.8555 26.4007 40.3641 26.4107 41.8713C26.4165 42.7247 26.6806 42.9877 27.5249 42.992C29.0295 43.0006 30.537 42.9963 32.0446 42.9963ZM32.0402 52.4373C33.6397 52.4373 35.2405 52.443 36.8399 52.4344C37.6569 52.4301 37.7401 52.3252 37.7401 51.4402C37.7401 50.5393 37.6569 50.4244 36.8643 50.4215C33.6641 50.4157 30.4652 50.4344 27.2664 50.4114C26.5442 50.4071 26.3748 50.7304 26.3935 51.3769C26.4107 51.9833 26.4193 52.4631 27.242 52.4459C28.84 52.4129 30.4408 52.4373 32.0402 52.4373ZM32.0417 56.9042C33.6411 56.9042 35.2405 56.9099 36.8399 56.9013C37.6497 56.897 37.7373 56.7864 37.7387 55.9013C37.7401 54.9904 37.6626 54.8855 36.8629 54.8841C33.6641 54.8769 30.4638 54.8769 27.265 54.8841C26.4653 54.8855 26.3992 54.9789 26.4035 55.9114C26.4079 56.7892 26.4997 56.9013 27.3124 56.9042C28.8902 56.9085 30.4652 56.9042 32.0417 56.9042ZM32.0733 47.9718C33.6971 47.9718 35.3223 47.9502 36.9462 47.9819C37.677 47.9962 37.7487 47.5939 37.7487 47.0235C37.7487 46.4431 37.7229 45.9948 36.939 45.9991C33.6899 46.0221 30.4423 46.0221 27.1932 45.9991C26.3935 45.9934 26.4079 46.4675 26.3978 47.0336C26.3878 47.6126 26.471 47.9991 27.1989 47.9847C28.8228 47.9488 30.448 47.9732 32.0733 47.9718ZM44.8801 19.9663C43.8765 19.9663 42.8715 19.9677 41.8679 19.9663C41.3424 19.9649 41.0624 20.2077 41.071 20.7493C41.0753 20.9879 41.0667 21.2278 41.0696 21.4663C41.0811 22.3226 41.2046 22.449 42.0861 22.4519C43.8076 22.4577 45.529 22.4548 47.2505 22.4534C48.5627 22.4534 48.6072 22.4059 48.5957 21.0683C48.5943 20.972 48.5929 20.8772 48.5929 20.781C48.5972 20.2134 48.3129 19.9563 47.7487 19.962C46.7925 19.9735 45.8363 19.9663 44.8801 19.9663ZM19.2005 22.4548C20.1078 22.4548 21.0152 22.4591 21.9226 22.4534C22.8357 22.4476 22.9319 22.3442 22.9377 21.4045C22.9391 21.2608 22.9248 21.1172 22.9391 20.9749C23.008 20.2767 22.7123 19.9677 21.9973 19.9749C20.2787 19.9907 18.5587 19.9677 16.8401 19.9649C15.4589 19.962 15.4029 20.0223 15.4245 21.4332C15.4259 21.5051 15.4273 21.5769 15.4273 21.6488C15.4202 22.2149 15.6872 22.4706 16.2629 22.4591C17.2421 22.439 18.2213 22.4534 19.2005 22.4548ZM32.1465 58.5191C30.9922 58.4789 30.0374 59.3381 29.9843 60.4631C29.9297 61.634 30.8271 62.6039 31.9957 62.6383C33.1745 62.6728 34.1364 61.7734 34.1594 60.6154C34.1809 59.4789 33.2965 58.5579 32.1465 58.5191ZM10.0404 22.2436C10.5788 22.2292 11.0211 21.7695 11.0239 21.2235C11.0254 20.6459 10.5458 20.1847 9.96722 20.2062C9.42595 20.2264 8.96508 20.6976 8.96939 21.2249C8.97369 21.7781 9.47907 22.2594 10.0404 22.2436ZM55.0336 21.2034C55.0293 20.6416 54.5469 20.2048 53.9482 20.2192C53.4083 20.2335 52.9747 20.7005 52.992 21.2493C53.0092 21.7968 53.4571 22.2393 53.997 22.2422C54.5641 22.2465 55.0379 21.7723 55.0336 21.2034ZM61.1527 22.245C61.7112 22.2479 62.1965 21.7536 62.1836 21.1962C62.1706 20.6603 61.7141 20.2134 61.1699 20.2062C60.6301 20.1991 60.1663 20.6402 60.1448 21.1804C60.1218 21.7508 60.587 22.2422 61.1527 22.245ZM3.85529 21.2307C3.86103 20.6445 3.40447 20.1919 2.82299 20.2048C2.28603 20.2177 1.82946 20.6818 1.8309 21.2149C1.83234 21.7522 2.28029 22.2249 2.80864 22.245C3.38293 22.268 3.84955 21.814 3.85529 21.2307ZM7.43602 21.2192C7.43889 20.6531 7.00673 20.2134 6.44249 20.2062C5.87537 20.1991 5.43747 20.6215 5.42311 21.189C5.40876 21.7939 5.8524 22.2508 6.44536 22.2407C7.00099 22.2307 7.43315 21.7853 7.43602 21.2192ZM58.5928 21.2608C58.61 20.6919 58.2037 20.2436 57.638 20.2077C57.058 20.1703 56.5799 20.6301 56.5784 21.2264C56.577 21.7853 57.0163 22.2364 57.5691 22.2436C58.1348 22.2493 58.5741 21.8269 58.5928 21.2608Z" fill="#001E42"/>
<path d="M12.3965 0.000943739C15.5077 0.000943739 18.6204 -0.000493029 21.7316 0.000943739C23.0683 0.00238051 23.3468 0.279677 23.3468 1.58857C23.3454 6.13882 23.3468 10.6891 23.3454 15.2407C23.3454 16.5209 23.0611 16.8212 21.7934 16.8212C15.4977 16.8269 9.20194 16.8269 2.90624 16.8241C1.72462 16.8241 1.40589 16.5037 1.40589 15.3356C1.40158 10.7365 1.40158 6.13882 1.40302 1.53972C1.40302 0.27824 1.6916 0.00238051 2.98807 0.000943739C6.12372 -0.000493029 9.25937 0.000943739 12.3965 0.000943739ZM12.3634 2.15179C12.3634 2.15466 12.3634 2.1561 12.3634 2.15897C9.92125 2.15897 7.48049 2.14604 5.03974 2.16472C3.88541 2.17334 3.38146 2.69201 3.37572 3.85148C3.3628 6.86869 3.3628 9.88591 3.37429 12.9046C3.37859 14.1718 3.91556 14.7048 5.16465 14.7063C9.92843 14.712 14.6908 14.712 19.4545 14.7063C20.8673 14.7048 21.4043 14.1603 21.4071 12.7422C21.4129 9.86867 21.4129 6.99513 21.4057 4.12016C21.4028 2.65465 20.8917 2.1561 19.4014 2.15322C17.0554 2.14748 14.7094 2.15179 12.3634 2.15179Z" fill="#001E42"/>
<path d="M51.75 0.000938297C54.8828 0.000938297 58.017 -0.00193524 61.1498 0.00237507C62.2782 0.00381183 62.62 0.327085 62.6228 1.4492C62.6329 6.08996 62.6329 10.7322 62.6257 15.3729C62.6243 16.4879 62.2739 16.8255 61.1526 16.8269C54.8383 16.8298 48.5239 16.8298 42.2095 16.8255C40.9561 16.8241 40.6618 16.5137 40.6604 15.235C40.6575 10.6876 40.6575 6.14168 40.6604 1.59431C40.6618 0.288292 40.9532 0.0052486 42.277 0.00381183C45.4356 -0.00049847 48.5928 0.000938297 51.75 0.000938297ZM51.6524 14.7077C53.9984 14.7077 56.3443 14.7106 58.6903 14.7063C60.1333 14.7034 60.6645 14.2034 60.6702 12.7781C60.6831 9.85573 60.6831 6.93478 60.6702 4.01239C60.6645 2.65896 60.1433 2.15322 58.7851 2.15178C54.0213 2.14747 49.2576 2.14747 44.4938 2.15322C43.1499 2.15465 42.6273 2.67907 42.6244 4.0282C42.6173 6.95058 42.6173 9.87153 42.6244 12.7939C42.6273 14.1761 43.1557 14.7005 44.544 14.7048C46.913 14.7134 49.2834 14.7077 51.6524 14.7077Z" fill="#001E42"/>
</svg>
