<svg width="71" height="55" viewBox="0 0 71 55" fill="none" xmlns="http://www.w3.org/2000/svg">
<path d="M55.7813 10.6213H55.7449V10.9815H55.7813V10.6213Z" fill="#001E42"/>
<path d="M40.7552 29.4507V28.6983L39.5246 26.8094L38.4924 27.4657L39.5287 29.0585V29.4507H29.1375V25.4927C29.4249 25.1766 29.5908 24.7764 29.5908 24.3442C29.5908 23.3957 28.8096 22.6233 27.8502 22.6233C27.8502 22.6233 27.8502 22.6233 27.8461 22.6233C27.3806 22.6233 26.9434 22.8034 26.6155 23.1275C26.2836 23.4517 26.1015 23.8839 26.1015 24.3482C26.1015 24.7884 26.2755 25.1886 26.5548 25.4967V27.1336C27.0446 27.966 27.6397 28.7424 28.3481 29.4427C29.3318 30.4152 30.4692 31.1836 31.7039 31.7319H40.9657C42.1922 31.1876 43.3216 30.4232 44.3012 29.4587H40.7552V29.4507ZM28.2186 24.7123C28.17 24.7604 28.1133 24.7964 28.0526 24.8244H27.6356C27.4454 24.7444 27.3118 24.5603 27.3118 24.3442C27.3118 24.2041 27.3685 24.072 27.4656 23.972C27.5668 23.8719 27.7004 23.8199 27.838 23.8199C28.1295 23.8199 28.3683 24.056 28.3683 24.3442C28.3764 24.4842 28.3198 24.6163 28.2186 24.7123Z" fill="#001E42"/>
<path d="M43.4916 39.8521C42.6497 40.1722 41.7874 40.4363 40.909 40.6404V42.6695C40.6257 42.9776 40.4597 43.3698 40.4557 43.794V43.8501C40.4718 44.2983 40.6621 44.7145 40.994 45.0227C41.3098 45.3148 41.7227 45.4749 42.1558 45.4749C42.168 45.4749 42.1841 45.4749 42.1963 45.4749H42.2084C42.6456 45.4829 43.099 45.3108 43.4309 44.9946C43.7588 44.6785 43.945 44.2543 43.9491 43.802V43.778C43.9369 43.3538 43.7629 42.9696 43.4957 42.6775V39.8521H43.4916ZM42.5768 44.1342C42.4796 44.2263 42.3542 44.2823 42.2246 44.2743H42.1963H42.168C42.0384 44.2783 41.917 44.2343 41.8198 44.1462C41.7267 44.0582 41.6701 43.9381 41.666 43.802C41.666 43.67 41.7186 43.5459 41.8158 43.4539C41.9048 43.3658 42.0222 43.3178 42.1558 43.3138H42.1639H42.2003C42.4918 43.3058 42.7104 43.5219 42.7266 43.798C42.7266 43.9261 42.6699 44.0462 42.5768 44.1342Z" fill="#001E42"/>
<path d="M35.2945 41.1446C34.4201 41.1006 33.5579 40.9966 32.7118 40.8445V42.6534C32.4204 42.9615 32.2504 43.3618 32.2463 43.794V43.85C32.2625 44.2982 32.4528 44.7144 32.7847 45.0226C32.9588 45.1827 33.1652 45.3027 33.3838 45.3788V49.2967C33.3838 49.4568 33.2543 49.5889 33.0802 49.5929H0V50.7935H33.1004C33.9343 50.7855 34.6022 50.1091 34.5982 49.2927V45.3748C35.2459 45.1426 35.7235 44.5303 35.7357 43.806V43.782C35.7235 43.3618 35.5576 42.9896 35.2945 42.6974V41.1446ZM34.0153 44.2742H33.987H33.9586C33.9546 44.2742 33.9465 44.2742 33.9424 44.2742C33.6834 44.2742 33.4648 44.0701 33.4567 43.798C33.4567 43.6659 33.5093 43.5418 33.6064 43.4498C33.6955 43.3617 33.8129 43.3137 33.9465 43.3097H33.9546H33.991C34.2906 43.3017 34.501 43.5178 34.5172 43.794C34.5091 44.0661 34.2906 44.2902 34.0153 44.2742Z" fill="#001E42"/>
<path d="M1.28011 43.5659C5.83005 43.5699 10.3759 43.5699 14.9259 43.5619C15.9177 43.5619 16.2293 43.2577 16.2293 42.2852C16.2293 39.7479 16.2293 37.2107 16.2293 34.6734H19.9211V36.5823C19.9211 37.6229 20.7752 38.4673 21.8277 38.4673H24.5156V42.6654C24.2322 42.9736 24.0663 43.3658 24.0622 43.79V43.846C24.0784 44.2942 24.2687 44.7104 24.6006 45.0186C24.9163 45.3107 25.3292 45.4708 25.7624 45.4708C25.7745 45.4708 25.7907 45.4708 25.8029 45.4708H25.815C25.8231 45.4708 25.8312 45.4708 25.8393 45.4708C26.2886 45.4708 26.7136 45.3027 27.0334 44.9906C27.3613 44.6744 27.5475 44.2502 27.5516 43.798V43.774C27.5394 43.3497 27.3654 42.9656 27.0982 42.6734V38.9355C25.6733 38.1952 24.3375 37.2787 23.115 36.2022H22.2204V35.3617C21.3622 34.5053 20.5971 33.5848 19.9211 32.6123V33.4648H16.2334C16.2334 26.9735 16.2293 20.4782 16.2213 13.987C16.2213 13.6668 16.1039 13.3066 15.9298 13.0305C15.5655 12.4462 15.0919 11.9299 14.7356 11.3457C14.4563 10.8894 14.1122 10.7053 13.582 10.7173C12.74 10.7333 3.56317 10.7413 2.96407 10.7093C2.20305 10.6733 1.68086 10.8814 1.34487 11.5898C1.13438 12.026 0.778154 12.3942 0.535275 12.8184C0.324779 13.1826 0.0292754 13.5828 0.0292754 13.967C-0.0031085 23.4197 0.000939487 32.8765 0.00498748 42.3332C0.00498748 43.2497 0.336923 43.5659 1.28011 43.5659ZM25.4264 43.4538C25.5154 43.3658 25.6328 43.3177 25.7664 43.3137H25.7745H25.8109C26.0943 43.3057 26.321 43.5218 26.3372 43.798C26.3331 43.926 26.2805 44.0461 26.1834 44.1341C26.0862 44.2262 25.9688 44.2822 25.8312 44.2742H25.8029H25.7745C25.649 44.2782 25.5195 44.2342 25.4264 44.1461C25.3333 44.0581 25.2766 43.938 25.2726 43.802C25.2766 43.6699 25.3292 43.5458 25.4264 43.4538ZM8.0443 42.1772C6.82991 42.1411 5.89887 41.1486 5.95554 39.948C6.00816 38.7955 6.99992 37.911 8.20217 37.955C9.39633 37.9951 10.3152 38.9395 10.2909 40.1041C10.2667 41.2887 9.2668 42.2132 8.0443 42.1772ZM13.0719 36.2902C11.4122 36.2982 9.74851 36.2942 8.08883 36.2942C6.45344 36.2942 4.81805 36.2982 3.17861 36.2942C2.33663 36.2902 2.23948 36.1781 2.23543 35.2737C2.23138 34.3172 2.3002 34.2212 3.13004 34.2212C6.45344 34.2132 9.7728 34.2132 13.0962 34.2212C13.926 34.2212 14.007 34.3292 14.007 35.2657C14.007 36.1741 13.9139 36.2862 13.0719 36.2902ZM2.23948 16.2321C2.24353 15.3357 2.49855 15.0635 3.37697 15.0595C6.53035 15.0475 9.68779 15.0475 12.8412 15.0555C13.7196 15.0595 13.9949 15.3397 14.0029 16.2161C14.0151 17.7609 14.0151 19.3097 14.0029 20.8584C13.9949 21.7709 13.7277 22.023 12.7886 22.027C11.222 22.031 9.65945 22.027 8.09288 22.027V22.023C6.52631 22.023 4.96378 22.027 3.39721 22.019C2.51879 22.015 2.24758 21.7469 2.23948 20.8704C2.23138 19.3257 2.23138 17.7769 2.23948 16.2321ZM3.05313 25.1046C6.42511 25.1286 9.80113 25.1286 13.1731 25.1046C13.9868 25.1006 14.0151 25.5608 14.0151 26.1531C14.0151 26.7374 13.9382 27.1496 13.1812 27.1376C11.4932 27.1056 9.80923 27.1256 8.12121 27.1256C6.4332 27.1256 4.74519 27.1016 3.06122 27.1376C2.30425 27.1536 2.21924 26.7574 2.22734 26.1611C2.23948 25.5848 2.22329 25.1006 3.05313 25.1046ZM3.13004 29.6348C6.45344 29.6589 9.77684 29.6389 13.0962 29.6429C13.9179 29.6429 14.007 29.7629 14.007 30.6874C14.007 31.5958 13.922 31.7039 13.0719 31.7079C11.4122 31.7159 9.74851 31.7119 8.08883 31.7119C6.42915 31.7119 4.76543 31.6879 3.10575 31.7239C2.25162 31.7439 2.24353 31.2477 2.22329 30.6273C2.20305 29.963 2.38116 29.6308 3.13004 29.6348Z" fill="#001E42"/>
<path d="M42.4027 14.4673C40.4597 14.4673 38.5167 14.4633 36.5736 14.4713C35.9179 14.4753 35.7438 14.6514 35.7357 15.2957C35.7276 15.9401 35.7316 16.5884 35.7357 17.2327C35.7357 18.1251 35.8571 18.2452 36.776 18.2452C36.9825 18.2452 37.1889 18.2452 37.3913 18.2452C38.0957 18.2452 38.8 18.2492 39.5044 18.2492H39.5287V21.7029C39.2979 21.787 39.0874 21.9151 38.9093 22.0911C38.5774 22.4153 38.3952 22.8475 38.3952 23.3118C38.3952 24.1602 39.0267 24.8645 39.8444 25.0046L40.8766 26.5854L41.9048 25.9291L41.1236 24.7325C41.2086 24.6724 41.2936 24.6084 41.3705 24.5324C41.7024 24.2082 41.8846 23.776 41.8846 23.3118C41.8846 22.5754 41.411 21.9511 40.7552 21.707V18.2492C41.2045 18.2492 41.6498 18.2492 42.0991 18.2412C42.1801 18.2412 42.253 18.2452 42.3177 18.2532H46.6086C46.7827 18.2532 46.9527 18.2532 47.1267 18.2532C46.7017 16.8805 46.0095 15.5959 45.0744 14.4713C44.1839 14.4713 43.2933 14.4673 42.4027 14.4673ZM37.9257 17.1447C37.5128 17.1286 37.1646 16.7645 37.1646 16.3523C37.1646 15.94 37.5209 15.5839 37.9378 15.5719C38.3912 15.5599 38.7474 15.912 38.7434 16.3643C38.7393 16.8125 38.375 17.1647 37.9257 17.1447ZM40.5164 23.6839C40.4152 23.784 40.2816 23.836 40.144 23.836C39.8525 23.836 39.6137 23.5999 39.6137 23.3158C39.6137 23.1757 39.6703 23.0436 39.7675 22.9436C39.8687 22.8435 40.0023 22.7915 40.1399 22.7915C40.4314 22.7915 40.6702 23.0276 40.6702 23.3158C40.6742 23.4558 40.6176 23.5879 40.5164 23.6839ZM40.7633 17.1407C40.3018 17.1487 39.9537 16.7965 39.9658 16.3322C39.978 15.896 40.318 15.5719 40.7593 15.5759C41.2005 15.5799 41.5365 15.92 41.5365 16.3563C41.5365 16.7925 41.1964 17.1367 40.7633 17.1407ZM43.5686 17.1447C43.1314 17.1567 42.7347 16.7845 42.7347 16.3603C42.7306 15.9521 43.0909 15.5919 43.5119 15.5759C43.9653 15.5599 44.3377 15.916 44.3377 16.3603C44.3336 16.7805 43.9895 17.1326 43.5686 17.1447Z" fill="#001E42"/>
<path d="M36.8286 11.8179C36.8286 12.7184 37.0756 12.9665 37.9985 12.9665C39.8525 12.9665 41.7065 12.9665 43.5645 12.9665C42.7549 12.2981 41.8603 11.7499 40.9131 11.3337C40.5285 11.3337 40.148 11.3337 39.7634 11.3337C39.0348 11.3337 38.6179 11.1015 38.4519 10.5773C37.9216 10.4772 37.3792 10.4172 36.8327 10.3932C36.8286 10.8694 36.8286 11.3417 36.8286 11.8179Z" fill="#001E42"/>
<path d="M38.6381 2.04103C38.8486 1.7929 39.1805 1.66884 39.6703 1.66484C41.5769 1.64883 43.4795 1.66084 45.3861 1.66084V1.65683C47.2158 1.65683 49.0455 1.65283 50.8792 1.65683C52.041 1.66084 52.4418 2.04503 52.4418 3.1736C52.4458 5.39071 52.4458 7.60382 52.4418 9.82094C52.4418 9.89698 52.4337 9.96501 52.4296 10.037C52.972 10.7814 53.4659 11.5618 53.895 12.3742C53.9355 12.2101 53.9517 12.006 53.9517 11.7499C53.9517 8.24014 53.9517 4.73438 53.9517 1.22462C53.9517 0.216109 53.7331 0 52.6927 0C50.2639 0 47.8351 0 45.4063 0C42.9573 0 40.5123 0 38.0633 0C37.0513 0 36.8286 0.212107 36.8286 1.1846C36.8286 1.42872 36.8286 1.67284 36.8286 1.92097C37.4358 1.93297 38.039 1.97299 38.6381 2.04103Z" fill="#001E42"/>
<path d="M48.9484 9.0645C41.9898 2.18504 30.6717 2.18504 23.7132 9.0645C16.7547 15.944 16.7587 27.1336 23.7172 34.013C29.8944 40.1201 39.5044 40.8005 46.4548 36.0621L62.922 54.0231C64.3955 55.4798 66.9943 55.2717 68.7268 53.5629C70.4594 51.85 70.6699 49.2807 69.1924 47.824L50.9197 31.6919C55.8259 24.8124 55.1701 15.2156 48.9484 9.0645ZM45.7504 30.8475C40.5569 35.982 32.1087 35.982 26.9151 30.8475C21.7215 25.7129 21.7215 17.3607 26.9151 12.2261C32.1087 7.09151 40.5569 7.09151 45.7504 12.2261C50.944 17.3647 50.944 25.7169 45.7504 30.8475Z" fill="#001E42"/>
</svg>
