<?xml version="1.0" standalone="no"?>
<!DOCTYPE svg PUBLIC "-//W3C//DTD SVG 20010904//EN"
 "http://www.w3.org/TR/2001/REC-SVG-20010904/DTD/svg10.dtd">
<svg version="1.0" xmlns="http://www.w3.org/2000/svg"
 width="177.000000pt" height="177.000000pt" viewBox="0 0 177.000000 177.000000"
 preserveAspectRatio="xMidYMid meet">
<metadata>
Created by potrace 1.14, written by Peter Selinger 2001-2017
</metadata>
<g transform="translate(0.000000,177.000000) scale(0.100000,-0.100000)"
fill="#000000" stroke="none">
<path d="M0 885 l0 -885 885 0 885 0 0 885 0 885 -885 0 -885 0 0 -885z m916
120 l26 -17 -27 -28 c-26 -27 -29 -28 -52 -13 -19 13 -26 14 -36 3 -9 -9 -9
-14 -1 -17 6 -2 31 -14 55 -26 39 -20 44 -26 47 -60 2 -23 -3 -48 -12 -62 -30
-46 -126 -56 -185 -18 l-23 15 28 29 c17 18 31 25 38 20 6 -5 22 -11 36 -13
37 -5 32 23 -6 36 -59 21 -78 40 -78 79 0 40 32 83 68 91 36 8 96 -1 122 -19z
m-566 -120 l0 -135 -45 0 -45 0 0 135 0 135 45 0 45 0 0 -135z m260 95 c0 -39
-1 -40 -35 -40 l-35 0 0 -95 0 -95 -45 0 -45 0 0 94 0 95 -32 3 c-30 3 -33 6
-36 41 l-3 37 115 0 116 0 0 -40z m549 25 c33 -16 41 -33 41 -81 0 -53 -32
-77 -110 -86 -22 -3 -25 -9 -28 -45 l-3 -43 -45 0 -44 0 0 135 0 135 80 0 c52
0 91 -5 109 -15z m171 -37 l0 -53 37 53 c37 52 37 52 91 52 l54 0 -51 -61 -51
-61 22 -31 c12 -18 34 -48 50 -68 15 -20 28 -40 28 -43 0 -3 -24 -6 -52 -6
-53 0 -53 1 -88 53 l-35 52 -3 -52 -3 -53 -45 0 -44 0 0 135 0 135 45 0 45 0
0 -52z m-632 -110 c-3 -31 -5 -33 -43 -34 -56 -1 -65 4 -65 37 0 29 1 29 56
29 l55 0 -3 -32z"/>
<path d="M1060 931 c0 -24 13 -33 34 -25 27 10 20 44 -9 44 -18 0 -25 -5 -25
-19z"/>
</g>
</svg>
